<svg xmlns="http://www.w3.org/2000/svg" width="48" height="48" viewBox="0 0 48 48">
  <path d="M 12.218 41.532 L 11.622 39.311 L 15.68 38.225 L 16.566 41.534 L 18.669 41.534 L 18.589 41.232 L 37.302 36.218 L 38.727 41.534 L 40.83 41.534 L 40.002 38.439 L 44.058 37.352 L 45.179 41.532 L 47.282 41.532 L 37.886 6.467 L 35.783 6.467 L 36.274 8.301 L 32.217 9.389 L 31.434 6.467 L 29.331 6.467 L 29.589 7.428 L 10.875 12.441 L 9.274 6.467 L 7.17 6.467 L 7.896 9.173 L 3.838 10.26 L 2.823 6.468 L 0.718 6.468 L 10.115 41.534 L 12.218 41.534 L 12.218 41.532 Z  M 10.992 36.956 L 9.834 32.637 L 13.891 31.551 L 15.048 35.868 L 10.992 36.956 Z  M 43.427 34.997 L 39.371 36.084 L 38.213 31.766 L 42.27 30.678 L 43.427 34.997 Z  M 41.639 28.323 L 37.583 29.411 L 36.426 25.091 L 40.482 24.005 L 41.639 28.323 Z  M 39.851 21.65 L 35.795 22.736 L 34.637 18.417 L 38.694 17.331 L 39.851 21.65 Z  M 36.906 10.656 L 38.063 14.975 L 34.006 16.062 L 32.849 11.744 L 36.906 10.656 Z  M 30.99 12.662 L 35.899 30.983 L 17.187 35.996 L 12.278 17.676 L 30.99 12.662 Z  M 4.47 12.615 L 8.526 11.529 L 9.684 15.848 L 5.626 16.934 L 4.47 12.615 Z  M 6.258 19.289 L 10.314 18.203 L 11.472 22.521 L 7.416 23.609 L 6.258 19.289 Z  M 8.046 25.964 L 12.102 24.876 L 13.26 29.195 L 9.202 30.282 L 8.046 25.964 Z" fill="#e32832" />
</svg>